<svg xmlns="http://www.w3.org/2000/svg" viewBox="0 0 76.62 76.62"><defs><style>.cls-1{fill:#e91d2c;}.cls-2,.cls-3{fill:#fff;}.cls-2{opacity:0.39;}</style></defs><g id="Layer_2" data-name="Layer 2"><g id="Layer_1-2" data-name="Layer 1"><circle class="cls-1" cx="38.31" cy="38.31" r="38.31"/><polygon class="cls-2" points="35.51 49.88 14.98 55.01 49.62 58.86 61.17 52.44 35.51 49.88"/><path class="cls-3" d="M51.05,60c0-.32-.12-.64-.14-1-.44-8.39-.89-16.77-1.28-25.16-.05-1-.31-1.38-1.39-1.35-3.78.1-7.57.12-11.35.11-.89,0-1.1.29-1.12,1.14-.1,5.11-.26,10.22-.4,15.33a.83.83,0,0,1-.22.55A3,3,0,0,1,35,49q-.39-7.71-.76-15.42c0-.46.14-1-.64-1.07l-18.3-1.28L14,55h-.25v-28c1.89-.35,3.92-.68,5.92-1.12A51.76,51.76,0,0,0,39.22,17.1a1.5,1.5,0,0,1,2.15,0,83.71,83.71,0,0,0,16.6,10c1.6.69,3.26,1.25,4.91,1.88V52.17l-.23,0c0-.38-.07-.75-.09-1.13-.32-5.83-.67-11.67-.94-17.51,0-.95-.37-1.16-1.25-1.14-2.31.07-4.63.08-6.94,0-.94,0-1.24.24-1.26,1.22q-.31,12.43-.71,24.88c0,.47-.09.94-.13,1.41Z"/></g></g></svg>