<svg id="Layer_1" data-name="Layer 1" xmlns="http://www.w3.org/2000/svg" viewBox="0 0 881.48 162.27"><defs><style>.cls-1{fill:#98989a;}.cls-2{fill:#fff;}.cls-3{fill:#ea0029;}.cls-4{fill:#0071ce;}.cls-5{fill:none;stroke:#f89522;stroke-width:2.12px;}.cls-6{fill:#982021;}.cls-7{fill:#9b9ca0;}</style></defs><title>NICA-lockup</title><rect class="cls-1" x="202.13" y="6.53" width="6.32" height="149.24"/><rect class="cls-2" x="9.33" width="146.05" height="162.26"/><path class="cls-3" d="M140,71.15l5.16,1.18,0,.84-17.78,3.76A14.88,14.88,0,0,0,124.16,72,30.51,30.51,0,0,0,120,68.93a11.87,11.87,0,0,1,1-7.12l5.92-4.06,4-4.6,1.55-.39a38.4,38.4,0,0,0,1.56,7c1.09,3.12,3.42,8.26,3.42,8.26Z" transform="translate(-19.26 -16.7)"/><path class="cls-4" d="M111.15,120.53l-1.55-1.4-1.86-20.22,8-4.23,1.53,11.51C113.3,115.79,111.15,120.53,111.15,120.53Z" transform="translate(-19.26 -16.7)"/><path class="cls-5" d="M130.45,106.26" transform="translate(-19.26 -16.7)"/><path class="cls-3" d="M130,96.87a7.1,7.1,0,0,0-3.74,1l1.35,9.89a15.5,15.5,0,0,1,6.74-3.23l-1.07-6.91A7.24,7.24,0,0,0,130,96.87Z" transform="translate(-19.26 -16.7)"/><path class="cls-6" d="M134.22,133.36" transform="translate(-19.26 -16.7)"/><path class="cls-4" d="M93.35,105.47c-2.3,2.19-3.4,9.85-2.5,18.75,1.05,10.31,4.39,18.36,7.47,18S103,133.11,102,122.8c-.14-1.33-.31-2.63-.52-3.88-.14.28-1.7,3.24-2.36,3.34a5.83,5.83,0,0,1-2.41-.08s-2.93-3-3.37-5.12c-.26-1.23.55-6.35.55-6.35Z" transform="translate(-19.26 -16.7)"/><path class="cls-4" d="M116.7,143.18c-.13-1.52-.21-3-.23-4.49a16.11,16.11,0,0,1-3.6-2.73,5.46,5.46,0,0,1-1.23-4.07l-3.91.18,0-.1c-.78,8.87-3.48,15-9.06,15.2-7,.22-11.81-11.78-12.48-25.95S89.88,95.6,96,95.67a3.75,3.75,0,0,1,.82.09c.24-1.19,1.54-7.36,2-8.2a38.34,38.34,0,0,1,2.91-3.79v-.62S98.37,80.81,97.91,80a13.68,13.68,0,0,1-1.85-4.7,23.35,23.35,0,0,1-.23-4.24L92.45,69a26.68,26.68,0,0,1-.62-3.59c0-.93,2.22-5.45,2.53-6.07s2.14-3.43,3.7-5.61,5.61-8.42,6.08-9,2.54-4.47,3-5a8.18,8.18,0,0,1,3.42-2.49c3.92-.79,8.6-1.45,8.6-1.45l.27-1.48s-.38-.82.1-4.08c.09-.32.64-.41.64-.41l.08-.73s-.27-1.87-.49-3.07a7.38,7.38,0,0,1,.75-5.51,9.42,9.42,0,0,1,3.75-3.74H22a2.69,2.69,0,0,0-2.69,2.7V176.28A2.7,2.7,0,0,0,22,179H135.32C125.51,173.73,118.19,159.83,116.7,143.18Z" transform="translate(-19.26 -16.7)"/><path class="cls-3" d="M134.31,141.87c-.42-5,1.29-9,3.93-9.39l-3-19.89a12,12,0,0,0-5.94,3.36l3.3,23.16Zm23,.48c-1.27-15.18-8.82-27.63-17.48-29.69l3.62,23.77a17.28,17.28,0,0,1,1.82,6.37c.51,5.5-1.53,9.8-4.56,9.59-2.24-.16-4.4-2.73-5.57-6.29l-2.53-.32a3.34,3.34,0,0,1-1.62.42,3.94,3.94,0,0,1-2.39-.38.55.55,0,0,1-.23-.31h0v-.05L125,122.21c-2.51,5.49-3.72,12.83-3.05,20.88,1.4,16.77,10.45,30.2,20.21,30S158.74,159.12,157.34,142.35Z" transform="translate(-19.26 -16.7)"/><path class="cls-3" d="M185.35,16.7H132.28c3.58.76,6.69,4.78,8.27,7.69a8.43,8.43,0,0,1,.9,3.09h0l2.05,8-2.36.07-1.5-.33,0,0a6.35,6.35,0,0,1-1.2.52,5.3,5.3,0,0,1-.94,2.16,6.93,6.93,0,0,1-1.86,1.45l-.49.93a8.79,8.79,0,0,1,1.9.77c.77.47,2.49,4,2.8,4.83a40.79,40.79,0,0,1,.47,5.45,19,19,0,0,0,.62,5.46c.78,3,1.56,6.54,1.56,6.54l2.81,1.87,2.65,4,3.74-.77,3,1.4,2,2.53-1.66,3.39-2.18.94-2.89.72,3.51,2.08-.62,1.25-6.86-2.65s-2.32,2.17-5.23-.54c-5.26,1.47-11.14,3.25-11.14,3.25l2,11.95,2.85,1.46a3.48,3.48,0,0,1,2.09.33h0l.13.13a.35.35,0,0,1,.06.36l1.4,9.18c14.37.69,25.76,17.22,27.18,38.06,1.15,17-4.44,31.29-13.35,36.63h33.49a2.69,2.69,0,0,0,2.69-2.69V19.4A2.69,2.69,0,0,0,185.35,16.7Z" transform="translate(-19.26 -16.7)"/><path class="cls-2" d="M73.8,126.6v10.17L54.16,151.1H73.81v12H34.52V163a22.14,22.14,0,0,1,9.36-18.08l8.94-6.31H34.52v-12Z" transform="translate(-19.26 -16.7)"/><path class="cls-2" d="M73.8,108.79V121.2H34.52V108.79Z" transform="translate(-19.26 -16.7)"/><path class="cls-2" d="M33.88,84.25a19,19,0,0,1,2.3-9.73H47.89A16.18,16.18,0,0,0,45.39,83c0,6,3,9.72,8.77,9.72S62.86,89,62.86,83a16.09,16.09,0,0,0-2.43-8.45H72.14a19,19,0,0,1,2.3,9.73c0,12.6-8,20.85-20.28,20.86S33.88,96.85,33.88,84.25Z" transform="translate(-19.26 -16.7)"/><path class="cls-2" d="M34.52,44.58,73.8,29.73V37.1A7.36,7.36,0,0,1,68.93,44l-.83.3V58.14l5.69,2V72.34L34.52,57.5Zm23.54,9.91V48l-9,3.26Z" transform="translate(-19.26 -16.7)"/><polygon class="cls-7" points="605.7 62.44 603.82 62.44 592.73 46.66 592.73 62.44 590.27 62.44 590.27 42.59 592.7 42.59 603.27 57.69 603.27 42.59 605.7 42.59 605.7 62.44"/><path class="cls-7" d="M637.79,59.3l7.76,19.85H643l-2.29-6h-8.19l-2.26,6h-2.59l7.76-19.85Zm-4.47,11.64h6.47l-3.23-8.47Z" transform="translate(-19.26 -16.7)"/><polygon class="cls-7" points="624.92 42.59 641.32 42.59 641.32 44.85 634.4 44.85 634.4 62.45 631.84 62.45 631.84 44.85 624.92 44.85 624.92 42.59"/><rect class="cls-7" x="644.15" y="42.59" width="2.56" height="19.85"/><path class="cls-7" d="M678.35,79.44c-5.21,0-9-4.23-9-10.22s3.75-10.21,9-10.21,9,4.2,9,10.21-3.75,10.22-9,10.22m0-18.14c-3.82,0-6.4,3.27-6.4,7.92s2.58,7.93,6.4,7.93,6.44-3.27,6.44-7.93-2.59-7.92-6.44-7.92" transform="translate(-19.26 -16.7)"/><polygon class="cls-7" points="686.94 62.44 685.07 62.44 673.98 46.66 673.98 62.44 671.52 62.44 671.52 42.59 673.95 42.59 684.52 57.69 684.52 42.59 686.94 42.59 686.94 62.44"/><path class="cls-7" d="M719,59.3l7.76,19.85H724.2l-2.29-6h-8.18l-2.26,6h-2.59l7.76-19.85Zm-4.46,11.64H721l-3.24-8.47Z" transform="translate(-19.26 -16.7)"/><polygon class="cls-7" points="710.24 42.59 712.79 42.59 712.79 60.15 722.91 60.15 722.91 62.45 710.24 62.45 710.24 42.59"/><rect class="cls-7" x="590.27" y="74.92" width="2.56" height="19.85"/><polygon class="cls-7" points="612.75 94.78 610.88 94.78 599.79 79 599.79 94.78 597.33 94.78 597.33 74.92 599.76 74.92 610.33 90.02 610.33 74.92 612.75 74.92 612.75 94.78"/><polygon class="cls-7" points="615.58 74.92 631.98 74.92 631.98 77.19 625.05 77.19 625.05 94.78 622.5 94.78 622.5 77.19 615.58 77.19 615.58 74.92"/><polygon class="cls-7" points="647.44 74.92 647.44 77.19 637.33 77.19 637.33 83.46 646.5 83.46 646.5 85.72 637.33 85.72 637.33 92.48 647.44 92.48 647.44 94.78 634.8 94.78 634.8 74.92 647.44 74.92"/><path class="cls-7" d="M672.72,103.07v8.41h-2.55V91.63h7.27c4,0,6.6,2,6.6,5.75,0,3.3-1.94,5.15-5.08,5.6l5.89,8.5h-2.92l-5.69-8.41Zm0-2.16h4.66c2.61,0,4.14-1.33,4.14-3.53s-1.53-3.52-4.14-3.52h-4.66Z" transform="translate(-19.26 -16.7)"/><path class="cls-7" d="M686.76,107.18a9.21,9.21,0,0,0,6.24,2.33c2.55,0,4.23-1.1,4.23-3.14,0-1.74-1.06-2.45-3.17-3.33l-2.91-1.13c-2.33-.9-4.45-2.23-4.45-5.37,0-3.42,2.93-5.2,6.36-5.2A10.09,10.09,0,0,1,698.75,93v2.69a8.72,8.72,0,0,0-5.66-2.07c-2.19,0-3.9,1-3.9,2.94,0,1.68,1.12,2.39,3,3.1l3.13,1.23c3,1.17,4.4,2.75,4.4,5.5,0,3.39-2.85,5.43-6.69,5.43a10.2,10.2,0,0,1-6.24-1.84Z" transform="translate(-19.26 -16.7)"/><path class="cls-7" d="M711.2,91.34a8.09,8.09,0,0,1,5.34,1.71v2.68a7.38,7.38,0,0,0-5.3-2.1c-4,0-6.8,3.14-6.8,7.93s2.79,7.92,6.8,7.92a7.51,7.51,0,0,0,5.3-2.1v2.68a8.09,8.09,0,0,1-5.34,1.71c-5.3,0-9.31-4-9.31-10.21s4-10.22,9.31-10.22" transform="translate(-19.26 -16.7)"/><polygon class="cls-7" points="717.3 74.92 717.3 94.78 714.75 94.78 714.75 85.72 703.52 85.72 703.52 94.78 700.97 94.78 700.97 74.92 703.52 74.92 703.52 83.43 714.75 83.43 714.75 74.92 717.3 74.92"/><path class="cls-7" d="M749,111.77c-5.2,0-9-4.23-9-10.21s3.75-10.22,9-10.22,9,4.2,9,10.22-3.74,10.21-9,10.21m0-18.14c-3.81,0-6.39,3.27-6.39,7.93s2.58,7.92,6.39,7.92,6.44-3.27,6.44-7.92-2.58-7.93-6.44-7.93" transform="translate(-19.26 -16.7)"/><polygon class="cls-7" points="742.13 74.92 744.69 74.92 744.69 92.48 754.81 92.48 754.81 94.78 742.13 94.78 742.13 74.92"/><path class="cls-7" d="M786.35,91.63l7.76,19.85h-2.58l-2.3-6h-8.18l-2.26,6H776.2L784,91.63Zm-4.46,11.64h6.47l-3.23-8.47Z" transform="translate(-19.26 -16.7)"/><path class="cls-7" d="M796.1,107.18a9.26,9.26,0,0,0,6.25,2.33c2.55,0,4.23-1.1,4.23-3.14,0-1.74-1.07-2.45-3.17-3.33l-2.91-1.13c-2.32-.9-4.46-2.23-4.46-5.37,0-3.42,2.94-5.2,6.37-5.2A10.13,10.13,0,0,1,808.1,93v2.69a8.74,8.74,0,0,0-5.65-2.07c-2.2,0-3.92,1-3.92,2.94,0,1.68,1.13,2.39,3,3.1l3.14,1.23c3,1.17,4.4,2.75,4.4,5.5,0,3.39-2.85,5.43-6.69,5.43a10.23,10.23,0,0,1-6.25-1.84Z" transform="translate(-19.26 -16.7)"/><polygon class="cls-7" points="791.59 74.92 807.99 74.92 807.99 77.19 801.07 77.19 801.07 94.78 798.51 94.78 798.51 77.19 791.59 77.19 791.59 74.92"/><rect class="cls-7" x="810.81" y="74.92" width="2.56" height="19.85"/><path class="cls-7" d="M845.37,91.34a8.09,8.09,0,0,1,5.34,1.71v2.68a7.38,7.38,0,0,0-5.3-2.1c-4,0-6.79,3.14-6.79,7.93s2.78,7.92,6.79,7.92a7.51,7.51,0,0,0,5.3-2.1v2.68a8.09,8.09,0,0,1-5.34,1.71c-5.3,0-9.31-4-9.31-10.21s4-10.22,9.31-10.22" transform="translate(-19.26 -16.7)"/><path class="cls-7" d="M617.68,123.67a8.14,8.14,0,0,1,5.33,1.71v2.69a7.32,7.32,0,0,0-5.3-2.11c-4,0-6.79,3.14-6.79,7.93s2.78,7.92,6.79,7.92a7.47,7.47,0,0,0,5.3-2.1v2.68a8.08,8.08,0,0,1-5.33,1.71c-5.3,0-9.32-4-9.32-10.21s4-10.22,9.32-10.22" transform="translate(-19.26 -16.7)"/><polygon class="cls-7" points="619.96 107.26 622.67 107.26 615.43 118.93 615.43 127.11 612.91 127.11 612.91 118.93 605.73 107.26 608.51 107.26 614.24 116.63 619.96 107.26"/><path class="cls-7" d="M651.45,123.67a8.17,8.17,0,0,1,5.34,1.71v2.69a7.35,7.35,0,0,0-5.31-2.11c-4,0-6.79,3.14-6.79,7.93s2.79,7.92,6.79,7.92a7.51,7.51,0,0,0,5.31-2.1v2.68a8.11,8.11,0,0,1-5.34,1.71c-5.3,0-9.31-4-9.31-10.21s4-10.22,9.31-10.22" transform="translate(-19.26 -16.7)"/><polygon class="cls-7" points="641.22 107.26 643.78 107.26 643.78 124.81 653.9 124.81 653.9 127.11 641.22 127.11 641.22 107.26"/><rect class="cls-7" x="656.87" y="107.25" width="2.56" height="19.85"/><polygon class="cls-7" points="679.35 127.11 677.48 127.11 666.39 111.33 666.39 127.11 663.93 127.11 663.93 107.26 666.36 107.26 676.93 122.35 676.93 107.26 679.35 107.26 679.35 127.11"/><path class="cls-7" d="M715.94,140.32v-4.69h-4.36V133.5h6.72v7.76a9.21,9.21,0,0,1-7,2.84c-5.53,0-9.28-4.07-9.28-10.21s4.1-10.22,9.57-10.22a9.28,9.28,0,0,1,5.72,1.77v2.72a8.17,8.17,0,0,0-5.72-2.2c-4.14,0-7,3.14-7,7.93s2.65,8,6.79,8a6.75,6.75,0,0,0,4.56-1.52" transform="translate(-19.26 -16.7)"/><path class="cls-7" d="M738,124l7.76,19.85h-2.59l-2.29-6h-8.18l-2.27,6h-2.58L735.6,124Zm-4.46,11.64H740l-3.24-8.47Z" transform="translate(-19.26 -16.7)"/><path class="cls-7" d="M747.74,139.51a9.21,9.21,0,0,0,6.24,2.33c2.56,0,4.24-1.1,4.24-3.14,0-1.74-1.07-2.45-3.17-3.33l-2.91-1.13c-2.33-.9-4.46-2.23-4.46-5.37,0-3.43,2.94-5.2,6.37-5.2a10,10,0,0,1,5.68,1.62V128a8.72,8.72,0,0,0-5.65-2.07c-2.2,0-3.91,1-3.91,2.94,0,1.68,1.13,2.39,3,3.1l3.14,1.23c3,1.17,4.39,2.75,4.39,5.5,0,3.39-2.84,5.43-6.69,5.43a10.22,10.22,0,0,1-6.24-1.84Z" transform="translate(-19.26 -16.7)"/><path class="cls-7" d="M763.13,139.51a9.23,9.23,0,0,0,6.24,2.33c2.55,0,4.24-1.1,4.24-3.14,0-1.74-1.07-2.45-3.17-3.33l-2.91-1.13c-2.33-.9-4.46-2.23-4.46-5.37,0-3.43,2.94-5.2,6.37-5.2a10,10,0,0,1,5.69,1.62V128a8.72,8.72,0,0,0-5.66-2.07c-2.2,0-3.91,1-3.91,2.94,0,1.68,1.13,2.39,3,3.1l3.14,1.23c3,1.17,4.39,2.75,4.39,5.5,0,3.39-2.84,5.43-6.69,5.43a10.22,10.22,0,0,1-6.24-1.84Z" transform="translate(-19.26 -16.7)"/><path class="cls-7" d="M787.23,144.1c-5.21,0-9-4.23-9-10.21s3.75-10.22,9-10.22,9,4.2,9,10.22-3.75,10.21-9,10.21m0-18.14c-3.82,0-6.41,3.27-6.41,7.93s2.59,7.92,6.41,7.92,6.43-3.27,6.43-7.92-2.59-7.93-6.43-7.93" transform="translate(-19.26 -16.7)"/><path class="cls-7" d="M807.9,123.67a8.17,8.17,0,0,1,5.34,1.71v2.69a7.35,7.35,0,0,0-5.3-2.11c-4,0-6.8,3.14-6.8,7.93s2.78,7.92,6.8,7.92a7.51,7.51,0,0,0,5.3-2.1v2.68a8.11,8.11,0,0,1-5.34,1.71c-5.3,0-9.31-4-9.31-10.21s4-10.22,9.31-10.22" transform="translate(-19.26 -16.7)"/><rect class="cls-7" x="797.71" y="107.25" width="2.56" height="19.85"/><path class="cls-7" d="M832.33,124l7.76,19.85H837.5l-2.29-6H827l-2.27,6h-2.59L829.94,124Zm-4.46,11.64h6.46l-3.23-8.47Z" transform="translate(-19.26 -16.7)"/><polygon class="cls-7" points="819.46 107.26 835.86 107.26 835.86 109.52 828.94 109.52 828.94 127.11 826.38 127.11 826.38 109.52 819.46 109.52 819.46 107.26"/><rect class="cls-7" x="838.69" y="107.25" width="2.56" height="19.85"/><path class="cls-7" d="M872.89,144.1c-5.2,0-9-4.23-9-10.21s3.76-10.22,9-10.22,9,4.2,9,10.22-3.75,10.21-9,10.21m0-18.14c-3.81,0-6.4,3.27-6.4,7.93s2.59,7.92,6.4,7.92,6.44-3.27,6.44-7.92-2.59-7.93-6.44-7.93" transform="translate(-19.26 -16.7)"/><polygon class="cls-7" points="881.48 127.11 879.61 127.11 868.52 111.33 868.52 127.11 866.06 127.11 866.06 107.26 868.48 107.26 879.06 122.35 879.06 107.26 881.48 107.26 881.48 127.11"/><path class="cls-3" d="M261.75,50.73a53.08,53.08,0,0,1,43.36,22.46l15.13,21.43V50.73h28.7V145h-24.4L290.17,97.84V145h-28.7" transform="translate(-19.26 -16.7)"/><rect class="cls-3" x="342.61" y="34.02" width="29.77" height="94.22"/><path class="cls-3" d="M450.51,49.2c9.51,0,17.34,2,23.32,5.52V82.8a38.67,38.67,0,0,0-20.25-6c-14.43,0-23.33,7.21-23.33,21,0,13.66,8.9,20.87,23.33,20.87a38.46,38.46,0,0,0,20.25-5.83V141c-6,3.53-13.81,5.52-23.32,5.52-30.23,0-50-19.18-50-48.64s19.8-48.64,50-48.64" transform="translate(-19.26 -16.7)"/><path class="cls-3" d="M545.66,50.73,581.26,145H563.59A17.65,17.65,0,0,1,547,133.28l-.72-2H513.13L508.22,145H479.06l35.6-94.22ZM521.88,107.2h15.65L529.7,85.56Z" transform="translate(-19.26 -16.7)"/></svg>